<svg width="31" height="30" viewBox="0 0 31 30" fill="none" xmlns="http://www.w3.org/2000/svg">
<path d="M21.0385 16.4138C20.9679 16.4862 20.7012 16.7962 20.4528 17.0512C18.9963 18.655 15.197 21.28 13.2085 22.0813C12.9065 22.21 12.143 22.4825 11.735 22.5C11.3441 22.5 10.9715 22.41 10.6159 22.2275C10.1727 21.9725 9.8171 21.5713 9.62226 21.0975C9.49683 20.7688 9.302 19.785 9.302 19.7675C9.10716 18.6913 9 16.9425 9 15.01C9 13.1688 9.10716 11.4913 9.26668 10.3988C9.28495 10.3812 9.47979 9.15875 9.69289 8.74C10.0838 7.975 10.8473 7.5 11.6644 7.5H11.735C12.2672 7.51875 13.3863 7.99375 13.3863 8.01125C15.2677 8.81375 18.9793 11.31 20.471 12.9688C20.471 12.9688 20.8911 13.395 21.0738 13.6613C21.3587 14.0437 21.5 14.5175 21.5 14.9913C21.5 15.52 21.3405 16.0125 21.0385 16.4138Z" fill="white"/>
</svg>
