<svg width="16" height="16" viewBox="0 0 16 16" fill="none" xmlns="http://www.w3.org/2000/svg">
<path d="M14.9946 11.4307C14.9933 11.4211 14.9922 11.4116 14.9903 11.4021C14.9887 11.3943 14.9866 11.3867 14.9846 11.379C14.9826 11.3709 14.9808 11.3627 14.9784 11.3546C14.9761 11.3471 14.9732 11.3398 14.9706 11.3324C14.9678 11.3244 14.9651 11.3163 14.9618 11.3084C14.959 11.3017 14.9557 11.2952 14.9526 11.2886C14.9488 11.2804 14.9451 11.2721 14.9408 11.264C14.9375 11.258 14.9338 11.2522 14.9303 11.2463C14.9255 11.2382 14.9209 11.23 14.9156 11.2221C14.9114 11.2159 14.9068 11.2101 14.9024 11.2041C14.8972 11.197 14.8921 11.1897 14.8864 11.1828C14.8792 11.174 14.8713 11.1657 14.8635 11.1574C14.8601 11.1538 14.8571 11.1499 14.8536 11.1464L13.3536 9.64642C13.3071 9.59999 13.252 9.56316 13.1914 9.53803C13.1307 9.5129 13.0657 9.49997 13 9.49997C12.9343 9.49997 12.8693 9.5129 12.8086 9.53803C12.748 9.56316 12.6929 9.59999 12.6464 9.64642C12.6 9.69285 12.5632 9.74798 12.538 9.80865C12.5129 9.86931 12.5 9.93433 12.5 10C12.5 10.0657 12.5129 10.1307 12.538 10.1914C12.5632 10.252 12.6 10.3071 12.6464 10.3536L13.2929 11H12.5585C12.0015 10.9994 11.4526 10.8662 10.9573 10.6113C10.462 10.3565 10.0346 9.98729 9.71039 9.53436L7.10333 5.88446C6.68649 5.30212 6.13693 4.82744 5.50015 4.49974C4.86337 4.17203 4.15769 4.00072 3.44153 4H2C1.86739 4 1.74021 4.05268 1.64645 4.14645C1.55268 4.24021 1.5 4.36739 1.5 4.5C1.5 4.63261 1.55268 4.75979 1.64645 4.85355C1.74021 4.94732 1.86739 5 2 5H3.44153C3.99854 5.00056 4.5474 5.13379 5.04268 5.38866C5.53795 5.64353 5.96539 6.01271 6.28961 6.46564L8.89667 10.1155C9.31351 10.6979 9.86307 11.1726 10.4999 11.5003C11.1366 11.828 11.8423 11.9993 12.5585 12H13.2929L12.6464 12.6464C12.5526 12.7402 12.5 12.8674 12.5 13C12.5 13.1326 12.5526 13.2598 12.6464 13.3536C12.7402 13.4474 12.8674 13.5 13 13.5C13.1326 13.5 13.2598 13.4474 13.3536 13.3536L14.8536 11.8536C14.8571 11.8501 14.8601 11.8462 14.8635 11.8426C14.8713 11.8343 14.8792 11.826 14.8864 11.8172C14.8921 11.8103 14.8972 11.803 14.9024 11.7959C14.9068 11.7899 14.9114 11.7841 14.9156 11.7779C14.9209 11.77 14.9255 11.7618 14.9303 11.7537C14.9338 11.7478 14.9375 11.742 14.9408 11.736C14.9451 11.7279 14.9488 11.7196 14.9526 11.7114C14.9557 11.7048 14.959 11.6983 14.9618 11.6916C14.9651 11.6837 14.9678 11.6756 14.9706 11.6676C14.9732 11.6602 14.9761 11.6529 14.9784 11.6454C14.9808 11.6373 14.9826 11.6291 14.9846 11.621C14.9866 11.6133 14.9887 11.6057 14.9903 11.5979C14.9922 11.5884 14.9933 11.5789 14.9946 11.5693C14.9955 11.5627 14.9968 11.5562 14.9975 11.5495C15.0008 11.5166 15.0008 11.4834 14.9975 11.4505C14.9968 11.4438 14.9955 11.4373 14.9946 11.4307Z" fill="#AAAAAA"/>
<path d="M8.93842 6.68632C8.99184 6.7245 9.05226 6.75179 9.11623 6.76661C9.1802 6.78144 9.24647 6.78351 9.31124 6.77271C9.37601 6.76191 9.43802 6.73846 9.49372 6.70368C9.54942 6.66891 9.59772 6.6235 9.63587 6.57004L9.71045 6.46561C10.0347 6.01269 10.4621 5.64351 10.9574 5.38863C11.4527 5.13376 12.0015 5.00053 12.5585 4.99997H13.2929L12.6465 5.6464C12.5527 5.74017 12.5 5.86736 12.5 5.99997C12.5 6.13259 12.5527 6.25978 12.6465 6.35355C12.7403 6.44733 12.8674 6.50001 13.0001 6.50001C13.1327 6.50001 13.2599 6.44733 13.3536 6.35355L14.8536 4.85355C14.8572 4.85003 14.8602 4.84618 14.8636 4.84258C14.8714 4.83428 14.8792 4.82599 14.8865 4.81717C14.8922 4.81025 14.8972 4.80298 14.9025 4.79583C14.9069 4.78985 14.9115 4.78408 14.9157 4.7779C14.921 4.76999 14.9256 4.76179 14.9304 4.75364C14.9339 4.74775 14.9376 4.74201 14.9408 4.73595C14.9452 4.72788 14.9489 4.71957 14.9527 4.71134C14.9558 4.70475 14.9591 4.69829 14.9619 4.69155C14.9652 4.68364 14.9678 4.67557 14.9707 4.66753C14.9733 4.66014 14.9761 4.65287 14.9784 4.64533C14.9809 4.63727 14.9827 4.62909 14.9847 4.62094C14.9866 4.61325 14.9888 4.60569 14.9904 4.59786C14.9922 4.5884 14.9934 4.57883 14.9947 4.56929C14.9956 4.56267 14.9969 4.55617 14.9976 4.54947C15.0008 4.51655 15.0008 4.48339 14.9976 4.45047C14.9969 4.44377 14.9956 4.43727 14.9947 4.43065C14.9934 4.42112 14.9922 4.41155 14.9904 4.40209C14.9888 4.39426 14.9866 4.38669 14.9847 4.379C14.9827 4.37085 14.9809 4.36268 14.9784 4.35462C14.9761 4.34708 14.9733 4.3398 14.9707 4.33242C14.9678 4.32438 14.9652 4.3163 14.9619 4.3084C14.9591 4.30166 14.9558 4.2952 14.9527 4.28861C14.9489 4.28037 14.9452 4.27207 14.9408 4.264C14.9376 4.25794 14.9339 4.2522 14.9304 4.24631C14.9256 4.23816 14.921 4.22995 14.9157 4.22205C14.9115 4.21587 14.9069 4.2101 14.9025 4.20412C14.8972 4.19696 14.8922 4.1897 14.8865 4.18277C14.8792 4.17395 14.8714 4.16567 14.8636 4.15737C14.8602 4.15377 14.8572 4.14992 14.8536 4.1464L13.3536 2.6464C13.2599 2.55262 13.1327 2.49994 13.0001 2.49994C12.8674 2.49994 12.7403 2.55262 12.6465 2.6464C12.5527 2.74017 12.5 2.86736 12.5 2.99997C12.5 3.13259 12.5527 3.25977 12.6465 3.35355L13.2929 3.99997H12.5585C11.8424 4.0007 11.1367 4.17201 10.4999 4.49971C9.86313 4.82741 9.31357 5.30209 8.89673 5.88444L8.82215 5.98887C8.78398 6.04229 8.75671 6.10272 8.74189 6.16668C8.72708 6.23065 8.72501 6.29691 8.73581 6.36168C8.74661 6.42644 8.77006 6.48845 8.80482 6.54415C8.83958 6.59985 8.88498 6.64816 8.93842 6.68632Z" fill="#AAAAAA"/>
<path d="M7.06165 9.31365C7.00822 9.27547 6.9478 9.24818 6.88383 9.23336C6.81986 9.21854 6.7536 9.21646 6.68883 9.22726C6.62405 9.23806 6.56205 9.26152 6.50634 9.29629C6.45064 9.33107 6.40234 9.37648 6.3642 9.42993L6.28961 9.53436C5.96539 9.98728 5.53795 10.3565 5.04268 10.6113C4.5474 10.8662 3.99854 10.9994 3.44153 11H2C1.86739 11 1.74021 11.0527 1.64645 11.1464C1.55268 11.2402 1.5 11.3674 1.5 11.5C1.5 11.6326 1.55268 11.7598 1.64645 11.8535C1.74021 11.9473 1.86739 12 2 12H3.44153C4.15769 11.9993 4.86337 11.828 5.50015 11.5003C6.13693 11.1726 6.68649 10.6979 7.10333 10.1155L7.17792 10.0111C7.21609 9.95768 7.24336 9.89725 7.25817 9.83329C7.27298 9.76932 7.27505 9.70306 7.26425 9.63829C7.25346 9.57353 7.23001 9.51152 7.19524 9.45582C7.16048 9.40012 7.11508 9.35181 7.06165 9.31365Z" fill="#AAAAAA"/>
</svg>
