<svg width="10" height="12" viewBox="0 0 10 12" fill="none" xmlns="http://www.w3.org/2000/svg">
<path d="M0.5 0C0.632608 1.32606e-06 0.759784 0.0526802 0.853552 0.146448C0.94732 0.240216 0.999999 0.367392 1 0.5V5.10846L8.47858 0.538209C8.63017 0.445582 8.8037 0.395008 8.98132 0.391692C9.15894 0.388375 9.33424 0.432435 9.48918 0.519339C9.64412 0.606244 9.77312 0.732855 9.8629 0.88615C9.95268 1.03944 10 1.21389 10 1.39154V10.6085C9.99993 10.7861 9.95256 10.9605 9.86275 11.1137C9.77295 11.267 9.64396 11.3936 9.48903 11.4805C9.3341 11.5674 9.15883 11.6114 8.98124 11.6081C8.80364 11.6048 8.63012 11.5543 8.47852 11.4618L1 6.89151V11.5C1 11.6326 0.947321 11.7598 0.853553 11.8536C0.759785 11.9473 0.632608 12 0.5 12C0.367392 12 0.240215 11.9473 0.146447 11.8536C0.0526785 11.7598 0 11.6326 0 11.5V0.5C1.32606e-06 0.367392 0.0526802 0.240216 0.146448 0.146448C0.240216 0.0526802 0.367392 1.32606e-06 0.5 0Z" fill="#AAAAAA"/>
</svg>
