<svg width="185" height="31" viewBox="0 0 185 31" fill="none" xmlns="http://www.w3.org/2000/svg">
<path d="M16.7436 7.59621C15.2531 8.43737 13.1466 8.46264 11.6376 7.65815C10.5953 7.10241 9.4154 6.78904 8.16565 6.78904C3.93204 6.78904 0.5 10.3846 0.5 14.82C0.5 19.2554 3.93204 22.8509 8.16565 22.8509C9.47908 22.8509 10.7154 22.5048 11.796 21.895C13.2864 21.0538 15.393 21.0286 16.9019 21.8331C17.9443 22.3888 19.1242 28.5 20.3739 28.5C24.6076 28.5 33.5 19.1066 33.5 14.6713C33.5 10.2358 24.6076 0.5 20.3739 0.5C19.0605 0.5 17.8242 6.98636 16.7436 7.59621Z" fill="#FC6D3E"/>
<path d="M47.564 17.924H47.9L48.268 11.444H53.26L51.276 22.5H43.772L41.724 11.444H47.148L47.564 17.924ZM56.4764 13.828C55.6657 13.828 55.0684 13.668 54.6844 13.348C54.3004 13.028 54.1084 12.516 54.1084 11.812C54.1084 11.108 54.3004 10.6013 54.6844 10.292C55.079 9.98267 55.6764 9.828 56.4764 9.828C58.0764 9.828 58.8764 10.4733 58.8764 11.764C58.8764 12.5 58.679 13.028 58.2844 13.348C57.8897 13.668 57.287 13.828 56.4764 13.828ZM54.1084 22.5V14.196H58.8764V22.5H54.1084ZM59.9715 10.58H64.7395V12.596L64.7075 13.284C64.7608 13.156 64.9368 13.06 65.2355 12.996C65.5342 12.9213 65.8542 12.884 66.1955 12.884C67.3795 12.884 68.2968 13.3107 68.9475 14.164C69.6088 15.0067 69.9395 16.2013 69.9395 17.748C69.9395 19.284 69.5982 20.4733 68.9155 21.316C68.2328 22.148 67.2622 22.564 66.0035 22.564C65.1502 22.564 64.4568 22.356 63.9235 21.94C63.8062 21.844 63.6995 21.7267 63.6035 21.588L63.2675 22.5H59.9715V10.58ZM64.4995 17.652V18.996C64.4995 19.1347 64.5368 19.2467 64.6115 19.332C64.6968 19.4173 64.8035 19.46 64.9315 19.46C65.0702 19.46 65.1822 19.4173 65.2675 19.332C65.3635 19.2467 65.4115 19.1347 65.4115 18.996V17.652C65.4115 17.524 65.3635 17.4173 65.2675 17.332C65.1822 17.236 65.0755 17.188 64.9475 17.188C64.8195 17.188 64.7128 17.236 64.6275 17.332C64.5422 17.4173 64.4995 17.524 64.4995 17.652ZM71.0221 17.796C71.0221 16.164 71.3901 14.9373 72.1261 14.116C72.8728 13.2947 74.0888 12.884 75.7741 12.884C77.4595 12.884 78.6328 13.2253 79.2941 13.908C79.9555 14.5907 80.2861 15.7107 80.2861 17.268L80.2061 18.5H75.7901V19.044C76.0568 19.108 76.4461 19.14 76.9581 19.14C78.0461 19.14 78.9261 19.092 79.5981 18.996L79.9341 18.948V21.956C79.8488 22.0093 79.7101 22.0787 79.5181 22.164C79.3368 22.2387 78.8941 22.34 78.1901 22.468C77.4861 22.596 76.7021 22.66 75.8381 22.66C74.1315 22.66 72.8995 22.2547 72.1421 21.444C71.3955 20.6333 71.0221 19.4173 71.0221 17.796ZM75.5501 17.076V17.7H76.4621V17.076C76.4621 16.9373 76.4141 16.8253 76.3181 16.74C76.2328 16.6547 76.1208 16.612 75.9821 16.612C75.8541 16.612 75.7475 16.6547 75.6621 16.74C75.5875 16.8253 75.5501 16.9373 75.5501 17.076ZM87.45 16.548V17.428C87.6633 17.4493 88.0367 17.46 88.57 17.46C89.5727 17.46 90.4687 17.428 91.258 17.364L91.642 17.332V22.116C90.6073 22.4787 89.1353 22.66 87.226 22.66C85.3273 22.66 83.8713 22.1747 82.858 21.204C81.8553 20.2333 81.354 18.7933 81.354 16.884C81.354 14.964 81.85 13.5507 82.842 12.644C83.834 11.7373 85.3113 11.284 87.274 11.284C88.0953 11.284 88.8687 11.332 89.594 11.428C90.33 11.524 90.8527 11.62 91.162 11.716L91.642 11.86V16.788C90.714 16.628 89.3167 16.548 87.45 16.548ZM102.125 16.452L102.045 18.42L102.445 18.404V22.036C102.253 22.196 101.922 22.34 101.453 22.468C100.983 22.596 100.541 22.66 100.125 22.66C99.7087 22.66 99.3781 22.6227 99.1327 22.548C98.8874 22.4733 98.7061 22.3933 98.5887 22.308C98.4714 22.212 98.3807 22.1053 98.3167 21.988C98.2207 21.8173 98.1727 21.6733 98.1727 21.556C97.5861 22.292 96.6527 22.66 95.3727 22.66C93.6127 22.66 92.7327 21.9133 92.7327 20.42C92.7327 19.524 93.0741 18.8893 93.7567 18.516C94.4394 18.132 95.6341 17.9027 97.3407 17.828C97.3407 17.4547 96.9301 17.268 96.1087 17.268C95.5541 17.268 95.0207 17.3373 94.5087 17.476C94.0074 17.6147 93.6447 17.7533 93.4207 17.892L93.0687 18.1V13.892C93.1647 13.8173 93.3087 13.7267 93.5007 13.62C93.6927 13.5027 94.1461 13.3533 94.8607 13.172C95.5754 12.98 96.3594 12.884 97.2127 12.884C98.9194 12.884 100.162 13.172 100.941 13.748C101.73 14.324 102.125 15.2253 102.125 16.452ZM97.5967 18.996V18.356L96.6847 18.612V18.996C96.6847 19.1347 96.7274 19.2467 96.8127 19.332C96.9087 19.4173 97.0207 19.46 97.1487 19.46C97.2874 19.46 97.3941 19.4173 97.4687 19.332C97.5541 19.2467 97.5967 19.1347 97.5967 18.996ZM107.76 12.884C108.603 12.884 109.36 12.932 110.032 13.028C110.715 13.124 111.184 13.22 111.44 13.316L111.808 13.46V17.46C111.083 17.0867 110 16.9 108.56 16.9V17.284C109.883 17.412 110.789 17.6413 111.28 17.972C111.771 18.3027 112.016 18.9053 112.016 19.78C112.016 20.6547 111.691 21.3533 111.04 21.876C110.389 22.3987 109.253 22.66 107.632 22.66C106.768 22.66 106 22.612 105.328 22.516C104.656 22.42 104.197 22.324 103.952 22.228L103.584 22.084V18.612C103.883 18.7613 104.341 18.9 104.96 19.028C105.589 19.1453 106.235 19.204 106.896 19.204V18.82C105.755 18.7133 104.891 18.452 104.304 18.036C103.717 17.62 103.424 16.948 103.424 16.02C103.424 15.0813 103.781 14.324 104.496 13.748C105.211 13.172 106.299 12.884 107.76 12.884ZM118.749 17.508V18.228H120.189V22.004C120.136 22.0573 120.045 22.1213 119.917 22.196C119.8 22.26 119.485 22.356 118.973 22.484C118.461 22.6013 117.869 22.66 117.197 22.66C114.754 22.66 113.533 21.5933 113.533 19.46V17.508H112.909V13.524C113.368 13.3853 113.773 13.1293 114.125 12.756C114.477 12.3827 114.717 12.0467 114.845 11.748L115.037 11.284H119.053V13.044H120.189V17.508H118.749ZM131.437 11.284C132.312 11.284 133.128 11.3427 133.885 11.46C134.653 11.5667 135.203 11.6787 135.533 11.796L136.013 11.972V16.548C135.149 16.1533 133.965 15.956 132.461 15.956V16.372C133.848 16.4787 134.845 16.756 135.453 17.204C136.061 17.652 136.365 18.3293 136.365 19.236C136.365 20.324 135.923 21.1667 135.037 21.764C134.152 22.3613 132.787 22.66 130.941 22.66C129.885 22.66 128.952 22.6013 128.141 22.484C127.331 22.356 126.787 22.2333 126.509 22.116L126.077 21.924V17.94C126.173 17.9827 126.317 18.0413 126.509 18.116C126.701 18.1907 127.128 18.2867 127.789 18.404C128.461 18.5213 129.181 18.58 129.949 18.58V18.196C128.648 18.1 127.667 17.8227 127.005 17.364C126.344 16.9053 126.013 16.1053 126.013 14.964C126.013 13.8227 126.467 12.9267 127.373 12.276C128.28 11.6147 129.635 11.284 131.437 11.284ZM142.948 17.508V18.228H144.388V22.004C144.335 22.0573 144.244 22.1213 144.116 22.196C143.999 22.26 143.684 22.356 143.172 22.484C142.66 22.6013 142.068 22.66 141.396 22.66C138.953 22.66 137.732 21.5933 137.732 19.46V17.508H137.108V13.524C137.567 13.3853 137.972 13.1293 138.324 12.756C138.676 12.3827 138.916 12.0467 139.044 11.748L139.236 11.284H143.252V13.044H144.388V17.508H142.948ZM150.914 13.044H155.442V22.5H151.41L151.25 21.332C151.207 21.4493 151.111 21.5933 150.962 21.764C150.813 21.9347 150.653 22.0787 150.482 22.196C150.013 22.5053 149.394 22.66 148.626 22.66C147.581 22.66 146.791 22.372 146.258 21.796C145.735 21.22 145.474 20.388 145.474 19.3V13.044H150.002V18.308C150.002 18.436 150.045 18.548 150.13 18.644C150.226 18.7293 150.338 18.772 150.466 18.772C150.594 18.772 150.701 18.7293 150.786 18.644C150.871 18.548 150.914 18.436 150.914 18.308V13.044ZM166.493 22.5H162.461L162.301 21.332C162.258 21.4493 162.167 21.5933 162.029 21.764C161.901 21.9347 161.762 22.0787 161.613 22.196C161.218 22.5053 160.711 22.66 160.093 22.66C158.973 22.66 158.098 22.2333 157.469 21.38C156.839 20.5267 156.525 19.3373 156.525 17.812C156.525 16.276 156.845 15.0707 157.485 14.196C158.125 13.3213 158.999 12.884 160.109 12.884C160.45 12.884 160.754 12.9267 161.021 13.012C161.287 13.0867 161.469 13.1613 161.565 13.236L161.709 13.348V10.58H166.493V22.5ZM161.053 17.652V18.996C161.053 19.1347 161.09 19.2467 161.165 19.332C161.25 19.4173 161.357 19.46 161.485 19.46C161.623 19.46 161.735 19.4173 161.821 19.332C161.917 19.2467 161.965 19.1347 161.965 18.996V17.652C161.965 17.524 161.917 17.4173 161.821 17.332C161.735 17.236 161.629 17.188 161.501 17.188C161.373 17.188 161.266 17.236 161.181 17.332C161.095 17.4173 161.053 17.524 161.053 17.652ZM169.943 13.828C169.133 13.828 168.535 13.668 168.151 13.348C167.767 13.028 167.575 12.516 167.575 11.812C167.575 11.108 167.767 10.6013 168.151 10.292C168.546 9.98267 169.143 9.828 169.943 9.828C171.543 9.828 172.343 10.4733 172.343 11.764C172.343 12.5 172.146 13.028 171.751 13.348C171.357 13.668 170.754 13.828 169.943 13.828ZM167.575 22.5V14.196H172.343V22.5H167.575ZM178.734 22.644H178.094C176.537 22.644 175.369 22.26 174.59 21.492C173.822 20.724 173.438 19.4867 173.438 17.78C173.438 16.0733 173.822 14.8307 174.59 14.052C175.369 13.2733 176.537 12.884 178.094 12.884H178.734C180.292 12.884 181.46 13.2733 182.238 14.052C183.017 14.8307 183.406 16.0733 183.406 17.78C183.406 19.4867 183.017 20.724 182.238 21.492C181.47 22.26 180.302 22.644 178.734 22.644ZM177.966 17.652V18.996C177.966 19.1347 178.004 19.2467 178.078 19.332C178.164 19.4173 178.27 19.46 178.398 19.46C178.537 19.46 178.649 19.4173 178.734 19.332C178.83 19.2467 178.878 19.1347 178.878 18.996V17.652C178.878 17.524 178.83 17.4173 178.734 17.332C178.649 17.236 178.542 17.188 178.414 17.188C178.286 17.188 178.18 17.236 178.094 17.332C178.009 17.4173 177.966 17.524 177.966 17.652Z" fill="black"/>
</svg>
